PathFileType	3	(X/Y/Z)	E:\ViconData\BIOM9541 2025\Week 7\Wed1100\Hanif 90 squat 2-5 Squat 01.trc
DataRate	CameraRate	NumFrames	NumMarkers	Units	OrigDataRate	OrigDataStartFrame	OrigNumFrames
200.0	200.0	6	19	mm	200.0	734	1467	
Frame#	Time	C7			CLAV			RBAK			LASI			RASI			LPSI			RPSI			LTHI			LKNE			LTIB			LANK			LHEE			LTOE			RTHI			RKNE			RTIB			RANK			RHEE			RTOE			
		X1	Y1	Z1	X2	Y2	Z2	X3	Y3	Z3	X4	Y4	Z4	X5	Y5	Z5	X6	Y6	Z6	X7	Y7	Z7	X8	Y8	Z8	X9	Y9	Z9	X10	Y10	Z10	X11	Y11	Z11	X12	Y12	Z12	X13	Y13	Z13	X14	Y14	Z14	X15	Y15	Z15	X16	Y16	Z16	X17	Y17	Z17	X18	Y18	Z18	X19	Y19	Z19	
734	3.665	302.35181	989.80792	-1219.766	165.38481	902.367	-1209.6061	332.0126	908.47485	-1366.4489	272.23373	554.19476	-1090.7625	267.62674	573.64117	-1352.8822	439.03461	621.54071	-1174.0299	439.7207	619.13422	-1248.1003	166.99651	441.18439	-926.75568	79.821465	346.1153	-880.98273	201.95901	180.55528	-913.25885	298.30664	67.655319	-971.69183	318.9285	54.946636	-1030.6492	160.85474	38.791431	-938.03784	298.71329	520.20703	-1435.3389	91.55365	335.74777	-1544.0363	131.01437	262.92807	-1539.7434	288.97729	70.53479	-1447.3308	315.74164	54.340538	-1375.2091	162.15649	40.033974	-1476.5789
735	3.67	302.62341	991.76556	-1219.7527	165.63832	904.36426	-1209.6224	332.26837	910.43774	-1366.3767	272.24826	556.05084	-1090.7411	267.70825	575.43036	-1352.8108	439.00867	623.50641	-1173.9542	439.73129	621.00037	-1248.0981	167.18591	441.84344	-926.66534	80.278976	346.47736	-881.10065	202.19139	180.65236	-913.30048	298.36047	67.752533	-971.59991	318.97571	54.984837	-1030.6053	160.85211	38.783054	-937.95398	298.70273	521.4104	-1435.3439	92.028648	336.17896	-1543.8033	131.3419	263.34872	-1539.6052	288.99078	70.548584	-1447.3384	315.76807	54.289997	-1375.2568	162.12338	40.020107	-1476.5244
736	3.675	302.84531	993.8103	-1219.6288	165.84598	906.52277	-1209.6061	332.56848	912.51562	-1366.3032	272.26236	558.1051	-1090.6912	267.73245	577.35632	-1352.8162	439.04321	625.51318	-1174.0631	439.76169	623.11035	-1248.0962	167.45819	442.67447	-926.59283	80.714561	346.92596	-881.18915	202.4373	180.85196	-913.29858	295.41522	68.897141	-962.61865	319.09705	54.925201	-1030.5619	160.87712	38.759026	-937.8775	298.62164	522.91742	-1435.5088	92.532661	336.64014	-1543.6082	131.75487	263.71146	-1539.4512	289.04459	70.534317	-1447.3557	315.8147	54.224731	-1375.373	162.12933	40.051311	-1476.6228
737	3.68	303.11304	996.02838	-1219.5967	166.05217	908.74377	-1209.5688	332.83459	914.66754	-1366.2611	272.27802	560.21588	-1090.6964	267.77478	579.31268	-1352.8635	439.0546	627.60535	-1174.2217	439.83856	625.36212	-1248.1222	167.7319	443.47284	-926.53406	81.212746	347.39398	-881.23364	202.70082	181.09363	-913.25555	298.46857	67.4739	-971.59949	319.20203	54.863579	-1030.5142	160.86975	38.724277	-937.82159	298.58606	524.34039	-1435.5222	93.016975	337.08041	-1543.324	132.23918	264.08069	-1539.293	289.11353	70.458153	-1447.3635	315.88123	54.109772	-1375.5159	162.15276	39.993118	-1476.6451
738	3.685	303.37982	998.31647	-1219.6277	166.28923	911.03143	-1209.6898	333.10727	916.93433	-1366.2732	272.19913	562.40302	-1090.4801	267.78775	581.38293	-1352.7367	439.03351	629.83545	-1174.3267	439.83636	627.64624	-1248.1458	168.03596	444.43146	-926.43304	81.748955	347.79044	-881.36456	202.98926	181.30034	-913.22839	295.85825	67.747261	-963.11877	319.28647	54.831127	-1030.4667	160.89384	38.724842	-937.81683	298.53772	525.74158	-1435.4401	93.51152	337.57178	-1543.0833	132.62781	264.48508	-1539.1056	289.14383	70.404541	-1447.3866	315.93207	54.004456	-1375.59	162.1057	39.95903	-1476.6359
739	3.69	303.61969	1000.7234	-1219.5966	166.46446	913.49933	-1209.6403	333.38321	919.39569	-1366.2001	272.31018	564.66162	-1090.5612	267.86441	583.53278	-1352.7242	438.99646	632.24023	-1174.2919	439.83466	630.02045	-1248.1246	168.37347	445.22778	-926.42181	82.32061	348.19742	-881.5448	203.28171	181.51135	-913.20117	296.3223	68.240036	-963.84546	319.32394	54.921833	-1030.3898	160.93379	38.70845	-937.73438	298.45264	527.40228	-1435.5548	94.10804	338.16052	-1542.8521	133.09947	264.97723	-1538.9517	289.1496	70.440567	-1447.3986	315.96347	54.022995	-1375.5786	162.10811	39.983143	-1476.6575
